<svg width="2708" height="2693" viewBox="0 0 2708 2693" fill="none" xmlns="http://www.w3.org/2000/svg">
<path d="M495.924 291.105C652.229 165.469 826.757 80.5173 1020.74 35.416C1075.96 22.5762 1131.7 13.242 1188.1 7.50847C1233.86 2.85677 1279.67 -0.420729 1325.68 0.0438401C1362.31 0.413591 1399.01 -0.330427 1435.55 1.6678C1590.38 10.1345 1740.28 41.5939 1884.05 100.489C2026.72 158.94 2154.79 240.497 2268.04 345.076C2379.21 447.735 2469.9 566.327 2541.51 699.576C2600.16 808.731 2643.52 923.726 2671.86 1044.29C2686.5 1106.59 2697.34 1169.62 2701.99 1233.52C2704.64 1270.03 2707.46 1306.61 2707.72 1343.17C2708.12 1397.78 2704.7 1452.26 2698.25 1506.59C2681.69 1646.02 2643.3 1779.2 2584.68 1906.56C2521.75 2043.31 2438.53 2166.62 2334.99 2275.84C2181.84 2437.41 2000.47 2555.7 1789.13 2626.87C1711.96 2652.85 1632.86 2670.97 1551.97 2681.23C1494.4 2688.54 1436.68 2692.65 1378.64 2692.09C1340.67 2691.72 1302.61 2693.08 1264.73 2691.12C978.113 2676.28 722.861 2578.33 500.168 2397.64C303.071 2237.72 161.769 2037.44 75.6845 1798.52C45.7957 1715.56 25.121 1630.31 12.4163 1543.01C1.05268 1464.92 -1.51202 1386.53 0.750373 1307.81C4.66187 1171.69 28.2235 1038.99 71.0513 909.876C132.984 723.164 230.217 557.119 364.805 413.232C405.394 369.839 448.726 329.456 495.924 291.105ZM1081.52 1109.28C1081.52 1067.95 1081.46 1026.62 1081.6 985.284C1081.62 980.204 1079.87 974.535 1085.9 969.056C1091.86 969.056 1099.12 969.056 1106.38 969.056C1191.71 969.056 1277.04 969.095 1362.37 968.986C1369.45 968.977 1376.84 970.337 1384.87 966.565C1384.87 959.648 1384.87 953.093 1384.87 946.538C1384.87 904.538 1384.82 862.538 1384.97 820.539C1384.98 817.024 1382.9 812.338 1388.75 810.167C1392.12 813.013 1395.73 815.905 1399.17 818.984C1425.99 842.997 1452.78 867.038 1479.57 891.084C1581.76 982.818 1683.97 1074.54 1786.08 1166.36C1790.3 1170.15 1795.98 1172.99 1797.75 1180.6C1661.33 1302.73 1524.79 1424.96 1388.18 1547.11C1387.49 1547.73 1385.77 1547.19 1383.78 1547.19C1380.99 1542.52 1382.45 1537.1 1382.43 1532.05C1382.26 1494.72 1382.39 1457.39 1382.27 1420.06C1382.25 1415 1381.35 1409.94 1380.74 1403.69C1371.61 1403.69 1363.7 1403.69 1355.8 1403.69C1131.13 1403.69 906.465 1403.69 681.8 1403.69C677.134 1403.69 672.451 1403.46 667.806 1403.78C664.003 1404.04 660.246 1404.95 656.289 1405.61C655.987 1410.47 655.524 1414.43 655.527 1418.38C655.678 1659.04 655.866 1899.69 656.069 2140.34C656.07 2140.98 656.192 2141.71 656.517 2142.24C656.847 2142.78 657.498 2143.13 658.006 2143.56C659.193 2144.04 660.379 2144.94 661.567 2144.94C795.56 2145.11 929.554 2145.23 1063.55 2145.31C1068.21 2145.32 1072.86 2145.03 1077.52 2144.82C1078.13 2144.8 1078.79 2144.51 1079.29 2144.16C1079.82 2143.78 1080.2 2143.19 1081.79 2141.39C1081.95 2135.64 1082.31 2128.42 1082.32 2121.21C1082.35 2026.54 1082.31 1931.88 1082.41 1837.21C1082.42 1830.12 1081.11 1822.74 1084.59 1814.69C1098.23 1814.46 1111.44 1814.19 1124.64 1814.03C1199.29 1813.17 1273.94 1811.75 1348.56 1815.94C1366.34 1816.93 1382.66 1821.31 1398.03 1829.87C1415.22 1839.45 1429.62 1852.06 1439.79 1869.12C1470.85 1921.18 1501.91 1973.26 1532.95 2025.33C1548.65 2051.66 1564.32 2077.99 1580.01 2104.32C1588.32 2118.28 1599.18 2129.86 1612.49 2139.16C1622.01 2145.81 1632.29 2149.52 1644.16 2149.63C1666.82 2149.83 1689.46 2151.24 1712.12 2151.3C1836.78 2151.64 1961.44 2151.72 2086.11 2151.88C2090.58 2151.89 2095.06 2151.88 2100.59 2151.88C2099.99 2142.66 2095.22 2136.92 2091.73 2130.81C2012.77 1992.51 1933.73 1854.26 1854.7 1716C1841.98 1693.74 1842.12 1693.88 1861.17 1676.42C1886.22 1653.46 1911.88 1631.08 1935.77 1606.96C1989.78 1552.42 2032.44 1489.98 2061.6 1418.72C2097.59 1330.78 2110.6 1239.46 2102.38 1144.8C2096.4 1075.98 2081.96 1009.17 2056.92 944.85C2001.8 803.3 1906.87 697.868 1769.84 631.238C1674.74 585.001 1573.4 564.576 1468.47 561.002C1411.86 559.074 1355.16 559.523 1298.5 559.46C1231.83 559.385 1165.17 559.962 1098.5 560.113C1092.05 560.127 1085.28 561.614 1079.99 558.785C1078.9 557.179 1078.36 556.693 1078.21 556.109C1077.9 554.821 1077.76 553.488 1077.61 552.167C1077.53 551.508 1077.55 550.835 1077.55 550.169C1077.54 501.502 1077.53 452.836 1077.51 404.17C1077.51 402.17 1077.46 400.17 1077.4 398.172C1077.38 397.511 1077.26 396.845 1077.12 396.197C1076.99 395.586 1076.91 394.841 1076.52 394.437C1076.1 393.997 1075.34 393.88 1073.21 392.99C1068.4 397.096 1062.88 401.61 1057.57 406.368C996.03 461.559 934.524 516.786 873.009 572.004C807.029 631.229 741.022 690.425 675.133 749.751C670.962 753.506 665.024 756.261 664.442 763.572C668.89 767.694 673.216 771.811 677.656 775.8C750.549 841.296 823.443 906.791 896.366 972.253C953.91 1023.91 1011.47 1075.55 1069.13 1127.08C1072.26 1129.88 1074.62 1135.19 1081.52 1132.4C1081.52 1126.12 1081.52 1119.51 1081.52 1109.28Z" fill="#FEFFFF"/>
<path d="M1081.52 1111.09C1081.52 1119.51 1081.52 1126.12 1081.52 1132.4C1074.62 1135.19 1072.26 1129.88 1069.13 1127.08C1011.47 1075.55 953.91 1023.91 896.366 972.253C823.443 906.791 750.549 841.296 677.656 775.8C673.216 771.811 668.89 767.693 664.442 763.572C665.024 756.261 670.962 753.506 675.133 749.751C741.022 690.425 807.029 631.229 873.009 572.003C934.524 516.786 996.03 461.559 1057.57 406.368C1062.88 401.61 1068.4 397.096 1073.21 392.99C1075.34 393.88 1076.1 393.997 1076.52 394.437C1076.91 394.841 1076.99 395.586 1077.12 396.197C1077.26 396.845 1077.38 397.511 1077.4 398.172C1077.46 400.17 1077.51 402.17 1077.51 404.17C1077.53 452.836 1077.54 501.502 1077.55 550.168C1077.55 550.835 1077.53 551.508 1077.61 552.167C1077.76 553.488 1077.9 554.821 1078.21 556.109C1078.36 556.693 1078.9 557.179 1079.99 558.785C1085.28 561.614 1092.05 560.127 1098.5 560.113C1165.17 559.962 1231.83 559.385 1298.5 559.46C1355.16 559.523 1411.86 559.074 1468.47 561.002C1573.4 564.576 1674.74 585.001 1769.84 631.238C1906.87 697.868 2001.8 803.3 2056.92 944.85C2081.96 1009.17 2096.4 1075.98 2102.38 1144.8C2110.6 1239.46 2097.59 1330.78 2061.6 1418.72C2032.44 1489.98 1989.78 1552.42 1935.77 1606.96C1911.88 1631.08 1886.22 1653.46 1861.17 1676.42C1842.12 1693.88 1841.98 1693.74 1854.7 1716C1933.73 1854.26 2012.77 1992.51 2091.73 2130.81C2095.22 2136.92 2099.99 2142.66 2100.59 2151.88C2095.06 2151.88 2090.58 2151.89 2086.11 2151.88C1961.44 2151.72 1836.78 2151.64 1712.12 2151.3C1689.46 2151.24 1666.82 2149.83 1644.16 2149.63C1632.29 2149.52 1622.01 2145.81 1612.49 2139.16C1599.18 2129.86 1588.32 2118.28 1580.01 2104.32C1564.32 2077.99 1548.65 2051.66 1532.95 2025.33C1501.91 1973.26 1470.85 1921.18 1439.79 1869.12C1429.62 1852.06 1415.22 1839.45 1398.03 1829.87C1382.66 1821.31 1366.34 1816.93 1348.56 1815.94C1273.94 1811.75 1199.29 1813.17 1124.64 1814.03C1111.44 1814.19 1098.23 1814.46 1084.59 1814.69C1081.11 1822.74 1082.42 1830.12 1082.41 1837.21C1082.31 1931.88 1082.35 2026.54 1082.32 2121.21C1082.31 2128.42 1081.95 2135.64 1081.79 2141.39C1080.2 2143.19 1079.82 2143.78 1079.29 2144.16C1078.79 2144.51 1078.13 2144.8 1077.52 2144.82C1072.86 2145.03 1068.21 2145.32 1063.55 2145.31C929.554 2145.23 795.56 2145.11 661.567 2144.94C660.379 2144.94 659.193 2144.04 658.007 2143.56C657.498 2143.13 656.847 2142.78 656.517 2142.24C656.192 2141.71 656.07 2140.98 656.069 2140.34C655.866 1899.69 655.678 1659.04 655.527 1418.38C655.524 1414.43 655.987 1410.47 656.289 1405.61C660.246 1404.95 664.003 1404.04 667.806 1403.78C672.451 1403.46 677.134 1403.69 681.8 1403.69C906.465 1403.69 1131.13 1403.69 1355.8 1403.69C1363.7 1403.69 1371.61 1403.69 1380.74 1403.69C1381.35 1409.94 1382.25 1415 1382.27 1420.06C1382.39 1457.39 1382.26 1494.72 1382.43 1532.05C1382.45 1537.1 1380.99 1542.52 1383.78 1547.19C1385.77 1547.19 1387.49 1547.73 1388.18 1547.11C1524.79 1424.96 1661.33 1302.73 1797.75 1180.6C1795.98 1172.99 1790.3 1170.15 1786.08 1166.36C1683.97 1074.54 1581.76 982.818 1479.57 891.084C1452.78 867.037 1425.99 842.996 1399.17 818.984C1395.73 815.905 1392.12 813.013 1388.75 810.167C1382.9 812.338 1384.98 817.024 1384.97 820.539C1384.82 862.538 1384.87 904.538 1384.87 946.537C1384.87 953.093 1384.87 959.648 1384.87 966.565C1376.84 970.337 1369.45 968.976 1362.37 968.985C1277.04 969.095 1191.71 969.056 1106.38 969.056C1099.12 969.056 1091.86 969.056 1085.9 969.056C1079.87 974.535 1081.62 980.204 1081.6 985.284C1081.46 1026.62 1081.52 1067.95 1081.52 1111.09Z" fill="#254B84"/>
</svg>
