<svg xmlns="http://www.w3.org/2000/svg" width="2708" height="2693" fill="none"><path fill="#254B84" d="M495.924 291.105C652.229 165.469 826.757 80.517 1020.74 35.416c55.22-12.84 110.96-22.174 167.36-27.908 45.76-4.651 91.57-7.929 137.58-7.464 36.63.37 73.33-.374 109.87 1.624 154.83 8.466 304.73 39.926 448.5 98.821 142.67 58.451 270.74 140.008 383.99 244.587 111.17 102.659 201.86 221.251 273.47 354.5 58.65 109.155 102.01 224.15 130.35 344.714 14.64 62.3 25.48 125.33 30.13 189.23 2.65 36.51 5.47 73.09 5.73 109.65.4 54.61-3.02 109.09-9.47 163.42-16.56 139.43-54.95 272.61-113.57 399.97-62.93 136.75-146.15 260.06-249.69 369.28-153.15 161.57-334.52 279.86-545.86 351.03-77.17 25.98-156.27 44.1-237.16 54.36-57.57 7.31-115.29 11.42-173.33 10.86-37.97-.37-76.03.99-113.91-.97-286.617-14.84-541.869-112.79-764.562-293.48-197.097-159.92-338.399-360.2-424.483-599.12-29.89-82.96-50.564-168.21-63.269-255.51C1.053 1464.92-1.512 1386.53.75 1307.81c3.912-136.12 27.474-268.82 70.301-397.934 61.933-186.712 159.166-352.757 293.754-496.644 40.589-43.393 83.921-83.776 131.119-122.127Zm585.596 818.175c0-41.33-.06-82.66.08-123.996.02-5.08-1.73-10.749 4.3-16.228h20.48c85.33 0 170.66.039 255.99-.07 7.08-.009 14.47 1.351 22.5-2.421v-20.027c0-42-.05-84 .1-125.999.01-3.515-2.07-8.201 3.78-10.372 3.37 2.846 6.98 5.738 10.42 8.817 26.82 24.013 53.61 48.054 80.4 72.1 102.19 91.734 204.4 183.456 306.51 275.276 4.22 3.79 9.9 6.63 11.67 14.24-136.42 122.13-272.96 244.36-409.57 366.51-.69.62-2.41.08-4.4.08-2.79-4.67-1.33-10.09-1.35-15.14-.17-37.33-.04-74.66-.16-111.99-.02-5.06-.92-10.12-1.53-16.37H681.8c-4.666 0-9.349-.23-13.994.09-3.803.26-7.56 1.17-11.517 1.83-.302 4.86-.765 8.82-.762 12.77.151 240.66.339 481.31.542 721.96.001.64.123 1.37.448 1.9.33.54.981.89 1.489 1.32 1.187.48 2.373 1.38 3.561 1.38 133.993.17 267.987.29 401.983.37 4.66.01 9.31-.28 13.97-.49.61-.02 1.27-.31 1.77-.66.53-.38.91-.97 2.5-2.77.16-5.75.52-12.97.53-20.18.03-94.67-.01-189.33.09-284 .01-7.09-1.3-14.47 2.18-22.52 13.64-.23 26.85-.5 40.05-.66 74.65-.86 149.3-2.28 223.92 1.91 17.78.99 34.1 5.37 49.47 13.93 17.19 9.58 31.59 22.19 41.76 39.25 31.06 52.06 62.12 104.14 93.16 156.21 15.7 26.33 31.37 52.66 47.06 78.99 8.31 13.96 19.17 25.54 32.48 34.84 9.52 6.65 19.8 10.36 31.67 10.47 22.66.2 45.3 1.61 67.96 1.67 124.66.34 249.32.42 373.99.58 4.47.01 8.95 0 14.48 0-.6-9.22-5.37-14.96-8.86-21.07-78.96-138.3-158-276.55-237.03-414.81-12.72-22.26-12.58-22.12 6.47-39.58 25.05-22.96 50.71-45.34 74.6-69.46 54.01-54.54 96.67-116.98 125.83-188.24 35.99-87.94 49-179.26 40.78-273.92-5.98-68.82-20.42-135.63-45.46-199.95-55.12-141.55-150.05-246.982-287.08-313.612-95.1-46.237-196.44-66.662-301.37-70.236-56.61-1.928-113.31-1.479-169.97-1.542-66.67-.075-133.33.502-200 .653-6.45.014-13.22 1.501-18.51-1.328-1.09-1.606-1.63-2.092-1.78-2.676-.31-1.288-.45-2.621-.6-3.942-.08-.659-.06-1.332-.06-1.998-.01-48.667-.02-97.333-.04-145.999 0-2-.05-4-.11-5.998-.02-.661-.14-1.327-.28-1.975-.13-.611-.21-1.356-.6-1.76-.42-.44-1.18-.557-3.31-1.447-4.81 4.106-10.33 8.62-15.64 13.378-61.54 55.191-123.046 110.418-184.561 165.636-65.98 59.225-131.987 118.421-197.876 177.747-4.171 3.755-10.109 6.51-10.691 13.821 4.448 4.122 8.774 8.239 13.214 12.228a635386.418 635386.418 0 0 0 218.71 196.453c57.544 51.657 115.104 103.297 172.764 154.827 3.13 2.8 5.49 8.11 12.39 5.32v-23.12Z"/><path fill="#FEFFFF" d="M1081.52 1111.09v21.31c-6.9 2.79-9.26-2.52-12.39-5.32-57.66-51.53-115.22-103.17-172.764-154.827A635386.418 635386.418 0 0 1 677.656 775.8c-4.44-3.989-8.766-8.107-13.214-12.228.582-7.311 6.52-10.066 10.691-13.821 65.889-59.326 131.896-118.522 197.876-177.748 61.515-55.217 123.021-110.444 184.561-165.635 5.31-4.758 10.83-9.272 15.64-13.378 2.13.89 2.89 1.007 3.31 1.447.39.404.47 1.149.6 1.76.14.648.26 1.314.28 1.975.06 1.998.11 3.998.11 5.998.02 48.666.03 97.332.04 145.998 0 .667-.02 1.34.06 1.999.15 1.321.29 2.654.6 3.942.15.584.69 1.07 1.78 2.676 5.29 2.829 12.06 1.342 18.51 1.328 66.67-.151 133.33-.728 200-.653 56.66.063 113.36-.386 169.97 1.542 104.93 3.574 206.27 23.999 301.37 70.236 137.03 66.63 231.96 172.062 287.08 313.612 25.04 64.32 39.48 131.13 45.46 199.95 8.22 94.66-4.79 185.98-40.78 273.92-29.16 71.26-71.82 133.7-125.83 188.24-23.89 24.12-49.55 46.5-74.6 69.46-19.05 17.46-19.19 17.32-6.47 39.58 79.03 138.26 158.07 276.51 237.03 414.81 3.49 6.11 8.26 11.85 8.86 21.07-5.53 0-10.01.01-14.48 0-124.67-.16-249.33-.24-373.99-.58-22.66-.06-45.3-1.47-67.96-1.67-11.87-.11-22.15-3.82-31.67-10.47-13.31-9.3-24.17-20.88-32.48-34.84-15.69-26.33-31.36-52.66-47.06-78.99-31.04-52.07-62.1-104.15-93.16-156.21-10.17-17.06-24.57-29.67-41.76-39.25-15.37-8.56-31.69-12.94-49.47-13.93-74.62-4.19-149.27-2.77-223.92-1.91-13.2.16-26.41.43-40.05.66-3.48 8.05-2.17 15.43-2.18 22.52-.1 94.67-.06 189.33-.09 284-.01 7.21-.37 14.43-.53 20.18-1.59 1.8-1.97 2.39-2.5 2.77-.5.35-1.16.64-1.77.66-4.66.21-9.31.5-13.97.49-133.996-.08-267.99-.2-401.983-.37-1.188 0-2.374-.9-3.56-1.38-.509-.43-1.16-.78-1.49-1.32-.325-.53-.447-1.26-.448-1.9-.203-240.65-.391-481.3-.542-721.96-.003-3.95.46-7.91.762-12.77 3.957-.66 7.714-1.57 11.517-1.83 4.645-.32 9.328-.09 13.994-.09h698.94c.61 6.25 1.51 11.31 1.53 16.37.12 37.33-.01 74.66.16 111.99.02 5.05-1.44 10.47 1.35 15.14 1.99 0 3.71.54 4.4-.08 136.61-122.15 273.15-244.38 409.57-366.51-1.77-7.61-7.45-10.45-11.67-14.24-102.11-91.82-204.32-183.542-306.51-275.276a84353.39 84353.39 0 0 0-80.4-72.1c-3.44-3.079-7.05-5.971-10.42-8.817-5.85 2.171-3.77 6.857-3.78 10.372-.15 41.999-.1 83.999-.1 125.998v20.028c-8.03 3.772-15.42 2.411-22.5 2.42-85.33.11-170.66.071-255.99.071h-20.48c-6.03 5.479-4.28 11.148-4.3 16.228-.14 41.336-.08 82.666-.08 125.806Z"/></svg>